<svg width="560" height="432" viewBox="120 150 560 432" fill="none" xmlns="http://www.w3.org/2000/svg">
  <defs>
    <linearGradient id="focamai-f-fill" x1="238" y1="188" x2="553" y2="516" gradientUnits="userSpaceOnUse">
      <stop offset="0" stop-color="#0F6175" />
      <stop offset="1" stop-color="#0A4F61" />
    </linearGradient>
    <linearGradient id="focamai-swoosh-fill" x1="146" y1="557" x2="638" y2="367" gradientUnits="userSpaceOnUse">
      <stop offset="0" stop-color="#E59B26" />
      <stop offset="0.8" stop-color="#E59B26" />
      <stop offset="1" stop-color="#C86F0E" />
    </linearGradient>
    <filter id="focamai-f-glow" x="188" y="150" width="428" height="426" filterUnits="userSpaceOnUse">
      <feGaussianBlur stdDeviation="10" result="blur" />
      <feMerge>
        <feMergeNode in="blur" />
        <feMergeNode in="SourceGraphic" />
      </feMerge>
    </filter>
    <filter id="focamai-swoosh-glow" x="112" y="332" width="566" height="268" filterUnits="userSpaceOnUse">
      <feGaussianBlur stdDeviation="10" result="blur" />
      <feMerge>
        <feMergeNode in="blur" />
        <feMergeNode in="SourceGraphic" />
      </feMerge>
    </filter>
  </defs>

  <g filter="url(#focamai-f-glow)">
    <path
      d="M333 188H564L552 241C547 262 528 276 507 276H390L380 323H501L489 376C484 397 466 411 444 411H358L345 493L230 531L281 241C287 210 308 188 340 188H333Z"
      fill="url(#focamai-f-fill)"
      stroke="#58B8D0"
      stroke-width="7"
      stroke-linejoin="round"
    />
    <path
      d="M390 276H507"
      stroke="#D9EEF2"
      stroke-width="10"
      stroke-linecap="round"
      opacity="0.28"
    />
    <path
      d="M380 323H501"
      stroke="#D9EEF2"
      stroke-width="10"
      stroke-linecap="round"
      opacity="0.2"
    />
  </g>

  <g filter="url(#focamai-swoosh-glow)">
    <path
      d="M146 557C326 555 507 491 638 367C554 476 377 565 146 557Z"
      fill="url(#focamai-swoosh-fill)"
    />
    <path
      d="M146 557C315 547 491 483 638 367"
      stroke="#9D590B"
      stroke-width="3"
      stroke-linecap="round"
      opacity="0.92"
    />
  </g>
</svg>
